<?xml version="1.0" encoding="UTF-8"?>
<svg xmlns="http://www.w3.org/2000/svg" xmlns:xlink="http://www.w3.org/1999/xlink" viewBox="0 0 2362 111.93">
  <defs>
    <style>
      .cls-1 {
        fill: none;
      }

      .cls-2 {
        fill: #575159;
      }

      .cls-3 {
        fill: url(#linear-gradient-2);
      }

      .cls-4 {
        mix-blend-mode: multiply;
        opacity: .37;
      }

      .cls-5 {
        fill: url(#linear-gradient);
      }

      .cls-6 {
        isolation: isolate;
      }

      .cls-7 {
        clip-path: url(#clippath-1);
      }

      .cls-8 {
        fill: #fff;
      }

      .cls-9 {
        mix-blend-mode: overlay;
      }

      .cls-10 {
        clip-path: url(#clippath);
      }
    </style>
    <clipPath id="clippath">
      <rect class="cls-1" y="0" width="1181" height="111.93"/>
    </clipPath>
    <linearGradient id="linear-gradient" x1="67.56" y1="83.13" x2="2724.85" y2="61.79" gradientUnits="userSpaceOnUse">
      <stop offset="0" stop-color="#79717d"/>
      <stop offset=".49" stop-color="#d4c5db"/>
      <stop offset="1" stop-color="#766e7a"/>
    </linearGradient>
    <clipPath id="clippath-1">
      <rect class="cls-1" x="1181" y="0" width="1181" height="111.93" transform="translate(3543 111.93) rotate(-180)"/>
    </clipPath>
    <linearGradient id="linear-gradient-2" x1="-4179.44" y1="83.13" x2="-1522.15" y2="61.79" gradientTransform="translate(-1885) rotate(-180) scale(1 -1)" xlink:href="#linear-gradient"/>
  </defs>
  <g class="cls-6">
    <g id="Layer_2" data-name="Layer 2">
      <g id="Layer_1-2" data-name="Layer 1">
        <g>
          <g class="cls-10">
            <g>
              <g>
                <rect class="cls-5" x="59.43" y="57.89" width="2483.72" height="30.66" rx="6.5" ry="6.5"/>
                <path class="cls-2" d="M2536.66,59.12c2.91,0,5.27,2.36,5.27,5.27v17.67c0,2.91-2.36,5.27-5.27,5.27H65.93c-2.91,0-5.27-2.36-5.27-5.27v-17.67c0-2.9,2.36-5.27,5.27-5.27h2470.73M2536.66,56.66H65.93c-4.26,0-7.73,3.47-7.73,7.73v17.67c0,4.26,3.47,7.73,7.73,7.73h2470.73c4.26,0,7.73-3.47,7.73-7.73v-17.67c0-4.26-3.47-7.73-7.73-7.73h0Z"/>
              </g>
              <path class="cls-4" d="M2541.93,66.85v15.21c0,2.91-2.36,5.27-5.27,5.27H65.93c-2.91,0-5.27-2.36-5.27-5.27v-15.21h2481.26Z"/>
              <g class="cls-9">
                <rect class="cls-8" x="60.67" y="66.85" width="2481.26" height="3.85"/>
              </g>
              <g class="cls-9">
                <path class="cls-8" d="M2536.66,61.58c1.55,0,2.81,1.26,2.81,2.81v17.67c0,1.55-1.26,2.81-2.81,2.81H65.93c-1.55,0-2.81-1.26-2.81-2.81v-17.67c0-1.55,1.26-2.81,2.81-2.81h2470.73M2536.66,59.12H65.93c-2.91,0-5.27,2.36-5.27,5.27v17.67c0,2.91,2.36,5.27,5.27,5.27h2470.73c2.91,0,5.27-2.36,5.27-5.27v-17.67c0-2.9-2.36-5.27-5.27-5.27h0Z"/>
              </g>
              <g class="cls-9">
                <ellipse class="cls-8" cx="1247.45" cy="63.85" rx="13.26" ry="4.73"/>
              </g>
              <g class="cls-9">
                <ellipse class="cls-8" cx="1249.42" cy="71.82" rx="5.43" ry="2.33"/>
              </g>
            </g>
          </g>
          <g class="cls-7">
            <g>
              <g>
                <rect class="cls-3" x="-181.16" y="57.89" width="2483.72" height="30.66" rx="6.5" ry="6.5"/>
                <path class="cls-2" d="M2296.07,59.12c2.91,0,5.27,2.36,5.27,5.27v17.67c0,2.91-2.36,5.27-5.27,5.27H-174.66c-2.91,0-5.27-2.36-5.27-5.27v-17.67c0-2.9,2.36-5.27,5.27-5.27h2470.73M2296.07,56.66H-174.66c-4.26,0-7.73,3.47-7.73,7.73v17.67c0,4.26,3.47,7.73,7.73,7.73h2470.73c4.26,0,7.73-3.47,7.73-7.73v-17.67c0-4.26-3.47-7.73-7.73-7.73h0Z"/>
              </g>
              <path class="cls-4" d="M-179.93,66.85v15.21c0,2.91,2.36,5.27,5.27,5.27h2470.73c2.91,0,5.27-2.36,5.27-5.27v-15.21s-2481.26,0-2481.26,0Z"/>
              <g class="cls-9">
                <rect class="cls-8" x="-179.93" y="66.85" width="2481.26" height="3.85"/>
              </g>
              <g class="cls-9">
                <path class="cls-8" d="M2296.07,61.58c1.55,0,2.81,1.26,2.81,2.81v17.67c0,1.55-1.26,2.81-2.81,2.81H-174.66c-1.55,0-2.81-1.26-2.81-2.81v-17.67c0-1.55,1.26-2.81,2.81-2.81h2470.73M2296.07,59.12H-174.66c-2.91,0-5.27,2.36-5.27,5.27v17.67c0,2.91,2.36,5.27,5.27,5.27h2470.73c2.91,0,5.27-2.36,5.27-5.27v-17.67c0-2.9-2.36-5.27-5.27-5.27h0Z"/>
              </g>
              <g class="cls-9">
                <ellipse class="cls-8" cx="1114.55" cy="63.85" rx="13.26" ry="4.73"/>
              </g>
              <g class="cls-9">
                <ellipse class="cls-8" cx="1112.58" cy="71.82" rx="5.43" ry="2.33"/>
              </g>
            </g>
          </g>
        </g>
      </g>
    </g>
  </g>
</svg>