<?xml version="1.0" encoding="UTF-8"?>
<svg xmlns="http://www.w3.org/2000/svg" xmlns:xlink="http://www.w3.org/1999/xlink" viewBox="0 0 2362 111.93">
  <defs>
    <style>
      .cls-1 {
        fill: none;
      }

      .cls-2 {
        fill: #575159;
      }

      .cls-3 {
        fill: url(#linear-gradient-5);
      }

      .cls-4 {
        fill: url(#linear-gradient-6);
      }

      .cls-5 {
        fill: url(#linear-gradient-4);
      }

      .cls-6 {
        fill: url(#linear-gradient-3);
      }

      .cls-7 {
        fill: url(#linear-gradient-2);
      }

      .cls-8 {
        opacity: .37;
      }

      .cls-8, .cls-9 {
        mix-blend-mode: multiply;
      }

      .cls-10 {
        fill: url(#radial-gradient-2);
      }

      .cls-10, .cls-11, .cls-12, .cls-13, .cls-14 {
        mix-blend-mode: overlay;
      }

      .cls-10, .cls-11, .cls-12, .cls-14 {
        opacity: .89;
      }

      .cls-11 {
        fill: url(#radial-gradient-3);
      }

      .cls-12 {
        fill: url(#radial-gradient-4);
      }

      .cls-9 {
        fill: #281310;
        opacity: .43;
      }

      .cls-15 {
        fill: #eddcf5;
      }

      .cls-16 {
        fill: #b666cc;
      }

      .cls-17 {
        fill: url(#linear-gradient);
      }

      .cls-18 {
        isolation: isolate;
      }

      .cls-19 {
        clip-path: url(#clippath-1);
      }

      .cls-20 {
        clip-path: url(#clippath-3);
      }

      .cls-21 {
        clip-path: url(#clippath-4);
      }

      .cls-22 {
        clip-path: url(#clippath-2);
      }

      .cls-23 {
        clip-path: url(#clippath-5);
      }

      .cls-24 {
        fill: #9b90a0;
      }

      .cls-25 {
        fill: #fff;
      }

      .cls-14 {
        fill: url(#radial-gradient);
      }

      .cls-26 {
        fill: #570d05;
      }

      .cls-27 {
        clip-path: url(#clippath);
      }
    </style>
    <clipPath id="clippath">
      <rect class="cls-1" y="0" width="1181" height="111.93"/>
    </clipPath>
    <linearGradient id="linear-gradient" x1="67.56" y1="83.13" x2="2724.85" y2="61.79" gradientUnits="userSpaceOnUse">
      <stop offset="0" stop-color="#79717d"/>
      <stop offset=".49" stop-color="#d4c5db"/>
      <stop offset="1" stop-color="#766e7a"/>
    </linearGradient>
    <clipPath id="clippath-1">
      <rect class="cls-1" x="1181" y="0" width="1181" height="111.93" transform="translate(3543 111.93) rotate(-180)"/>
    </clipPath>
    <linearGradient id="linear-gradient-2" x1="-4179.44" y1="83.13" x2="-1522.15" y2="61.79" gradientTransform="translate(-1885) rotate(-180) scale(1 -1)" xlink:href="#linear-gradient"/>
    <clipPath id="clippath-2">
      <rect class="cls-1" x="117" y="47.46" width="271.71" height="42.68"/>
    </clipPath>
    <linearGradient id="linear-gradient-3" x1="-1837.79" y1="1410.2" x2="-1585.17" y2="1372.23" gradientTransform="translate(-1084.07 -1591.44) rotate(-90)" gradientUnits="userSpaceOnUse">
      <stop offset=".2" stop-color="#efa03b"/>
      <stop offset=".53" stop-color="#cd560d"/>
      <stop offset=".63" stop-color="#c44100"/>
      <stop offset="1" stop-color="#570d05"/>
    </linearGradient>
    <radialGradient id="radial-gradient" cx="-1821.81" cy="1335.14" fx="-1821.81" fy="1335.14" r="235.08" gradientTransform="translate(-1084.07 -1591.44) rotate(-90)" gradientUnits="userSpaceOnUse">
      <stop offset=".02" stop-color="#fff"/>
      <stop offset=".46" stop-color="#fff"/>
      <stop offset="1" stop-color="#fff" stop-opacity="0"/>
    </radialGradient>
    <clipPath id="clippath-3">
      <rect class="cls-1" x="388.29" y="47.46" width="271.71" height="42.68" transform="translate(1048.29 137.61) rotate(-180)"/>
    </clipPath>
    <linearGradient id="linear-gradient-4" x1="-1837.79" y1="-1530.8" x2="-1585.17" y2="-1568.77" gradientTransform="translate(-1079.93 -1591.44) rotate(-90) scale(1 -1)" xlink:href="#linear-gradient-3"/>
    <radialGradient id="radial-gradient-2" cx="-1821.81" cy="-1605.86" fx="-1821.81" fy="-1605.86" r="235.08" gradientTransform="translate(-1079.93 -1591.44) rotate(-90) scale(1 -1)" xlink:href="#radial-gradient"/>
    <clipPath id="clippath-4">
      <rect class="cls-1" x="1706" y="49.46" width="271.71" height="42.68"/>
    </clipPath>
    <linearGradient id="linear-gradient-5" x1="-1839.79" y1="2999.2" x2="-1587.17" y2="2961.23" xlink:href="#linear-gradient-3"/>
    <radialGradient id="radial-gradient-3" cx="-1823.81" cy="2924.14" fx="-1823.81" fy="2924.14" r="235.08" xlink:href="#radial-gradient"/>
    <clipPath id="clippath-5">
      <rect class="cls-1" x="1977.29" y="49.46" width="271.71" height="42.68" transform="translate(4226.29 141.61) rotate(-180)"/>
    </clipPath>
    <linearGradient id="linear-gradient-6" x1="-1839.79" y1="-3119.8" x2="-1587.17" y2="-3157.77" gradientTransform="translate(-1079.93 -1591.44) rotate(-90) scale(1 -1)" xlink:href="#linear-gradient-3"/>
    <radialGradient id="radial-gradient-4" cx="-1823.81" cy="-3194.86" fx="-1823.81" fy="-3194.86" r="235.08" gradientTransform="translate(-1079.93 -1591.44) rotate(-90) scale(1 -1)" xlink:href="#radial-gradient"/>
  </defs>
  <g class="cls-18">
    <g id="Layer_2" data-name="Layer 2">
      <g id="Layer_1-2" data-name="Layer 1">
        <g>
          <g class="cls-27">
            <g>
              <rect class="cls-17" x="59.43" y="57.89" width="2483.72" height="30.66" rx="6.5" ry="6.5"/>
              <path class="cls-2" d="M2536.66,59.12c2.91,0,5.27,2.36,5.27,5.27v17.67c0,2.91-2.36,5.27-5.27,5.27H65.93c-2.91,0-5.27-2.36-5.27-5.27v-17.67c0-2.9,2.36-5.27,5.27-5.27h2470.73M2536.66,56.66H65.93c-4.26,0-7.73,3.47-7.73,7.73v17.67c0,4.26,3.47,7.73,7.73,7.73h2470.73c4.26,0,7.73-3.47,7.73-7.73v-17.67c0-4.26-3.47-7.73-7.73-7.73h0Z"/>
            </g>
            <path class="cls-8" d="M2541.93,66.85v15.21c0,2.91-2.36,5.27-5.27,5.27H65.93c-2.91,0-5.27-2.36-5.27-5.27v-15.21h2481.26Z"/>
            <g class="cls-13">
              <rect class="cls-25" x="60.67" y="66.85" width="2481.26" height="3.85"/>
            </g>
            <g class="cls-13">
              <path class="cls-25" d="M2536.66,61.58c1.55,0,2.81,1.26,2.81,2.81v17.67c0,1.55-1.26,2.81-2.81,2.81H65.93c-1.55,0-2.81-1.26-2.81-2.81v-17.67c0-1.55,1.26-2.81,2.81-2.81h2470.73M2536.66,59.12H65.93c-2.91,0-5.27,2.36-5.27,5.27v17.67c0,2.91,2.36,5.27,5.27,5.27h2470.73c2.91,0,5.27-2.36,5.27-5.27v-17.67c0-2.9-2.36-5.27-5.27-5.27h0Z"/>
            </g>
            <g class="cls-13">
              <ellipse class="cls-25" cx="1247.45" cy="63.85" rx="13.26" ry="4.73"/>
            </g>
            <g class="cls-13">
              <ellipse class="cls-25" cx="1249.42" cy="71.82" rx="5.43" ry="2.33"/>
            </g>
          </g>
          <g class="cls-19">
            <g>
              <rect class="cls-7" x="-181.16" y="57.89" width="2483.72" height="30.66" rx="6.5" ry="6.5"/>
              <path class="cls-2" d="M2296.07,59.12c2.91,0,5.27,2.36,5.27,5.27v17.67c0,2.91-2.36,5.27-5.27,5.27H-174.66c-2.91,0-5.27-2.36-5.27-5.27v-17.67c0-2.9,2.36-5.27,5.27-5.27h2470.73M2296.07,56.66H-174.66c-4.26,0-7.73,3.47-7.73,7.73v17.67c0,4.26,3.47,7.73,7.73,7.73h2470.73c4.26,0,7.73-3.47,7.73-7.73v-17.67c0-4.26-3.47-7.73-7.73-7.73h0Z"/>
            </g>
            <path class="cls-8" d="M-179.93,66.85v15.21c0,2.91,2.36,5.27,5.27,5.27h2470.73c2.91,0,5.27-2.36,5.27-5.27v-15.21s-2481.26,0-2481.26,0Z"/>
            <g class="cls-13">
              <rect class="cls-25" x="-179.93" y="66.85" width="2481.26" height="3.85"/>
            </g>
            <g class="cls-13">
              <path class="cls-25" d="M2296.07,61.58c1.55,0,2.81,1.26,2.81,2.81v17.67c0,1.55-1.26,2.81-2.81,2.81H-174.66c-1.55,0-2.81-1.26-2.81-2.81v-17.67c0-1.55,1.26-2.81,2.81-2.81h2470.73M2296.07,59.12H-174.66c-2.91,0-5.27,2.36-5.27,5.27v17.67c0,2.91,2.36,5.27,5.27,5.27h2470.73c2.91,0,5.27-2.36,5.27-5.27v-17.67c0-2.9-2.36-5.27-5.27-5.27h0Z"/>
            </g>
            <g class="cls-13">
              <ellipse class="cls-25" cx="1114.55" cy="63.85" rx="13.26" ry="4.73"/>
            </g>
            <g class="cls-13">
              <ellipse class="cls-25" cx="1112.58" cy="71.82" rx="5.43" ry="2.33"/>
            </g>
          </g>
          <g>
            <g class="cls-22">
              <g>
                <g>
                  <path class="cls-6" d="M121.15,82.81c-.44,0-.8-.34-.82-.78l-.87-16.78c-.01-.23.08-.46.24-.62l6.55-6.55c.15-.15.36-.24.58-.24h351.36c.45,0,.82.37.83.82l.14,23.33c0,.22-.08.43-.24.59-.15.16-.37.24-.58.24H121.15Z"/>
                  <path class="cls-26" d="M478.19,58.66l.04,6.55.1,16.78H121.15l-.64-12.2-.04-.73-.2-3.85,6.55-6.55h351.36M478.19,57.01H126.83c-.44,0-.86.17-1.17.48l-6.55,6.55c-.33.33-.51.79-.48,1.25l.2,3.85.04.73.64,12.2c.05.88.77,1.56,1.65,1.56h357.18c.44,0,.86-.18,1.17-.49.31-.31.48-.73.48-1.17l-.1-16.78-.04-6.55c0-.91-.74-1.64-1.65-1.64h0Z"/>
                </g>
                <g>
                  <path class="cls-26" d="M451.16,61.71l2.7-1.11s.09,0,.11.05c.02.04,0,.09-.05.11h0s-2.65,1.21-2.65,1.21c-.86.44-1.71.91-2.57,1.35l-1.24.75c-.41.26-.83.48-1.22.77-.79.55-1.59,1.09-2.33,1.71-.77.58-1.48,1.24-2.2,1.87-.7.66-1.4,1.33-2.08,2.02-1.38,1.36-2.77,2.77-4.47,3.86-1.68,1.1-3.66,1.73-5.63,2l-.74.09c-.25.03-.5.06-.71.1l-.67.1-.66.19c-.22.05-.43.14-.64.23-.21.09-.43.17-.63.28-.41.22-.82.42-1.21.69-1.56,1.02-2.95,2.34-4.24,3.75-.08.08-.16.17-.23.26h-1.75c.35-.39.7-.76,1.06-1.13,1.36-1.42,2.84-2.77,4.56-3.84.42-.28.88-.5,1.34-.73.22-.11.47-.19.71-.29.24-.1.47-.19.73-.25l.75-.2.77-.1.73-.08.7-.07c1.88-.22,3.7-.75,5.3-1.74,1.61-.97,3-2.32,4.42-3.64.71-.67,1.43-1.32,2.16-1.97.76-.63,1.49-1.27,2.29-1.83.77-.61,1.6-1.12,2.42-1.66.4-.28.84-.5,1.26-.74l1.27-.72c.88-.43,1.75-.87,2.64-1.27Z"/>
                  <path class="cls-26" d="M212.93,58.66h3.96l-19.38,5.71c-3.74,1.06-7.48,2.13-11.24,3.12-3.76.99-7.53,1.97-11.32,2.83-3.8.87-7.61,1.68-11.45,2.38-3.84.69-7.71,1.27-11.62,1.55-.98.05-1.96.15-2.94.14l-1.48.02c-.49,0-.99-.04-1.48-.06-.99-.02-1.96-.14-2.93-.23-.97-.1-1.95-.16-2.91-.3-3.88-.45-7.72-1.13-11.54-1.95-2.73-.58-5.42-1.29-8.08-2.1l-.04-.73c2.75.74,5.52,1.38,8.31,1.93,3.8.73,7.63,1.32,11.47,1.69.96.12,1.93.16,2.89.24.96.06,1.93.17,2.88.17.48,0,.96.03,1.43.03l1.43-.04c.96,0,1.92-.11,2.88-.17,3.83-.31,7.66-.91,11.46-1.63,3.8-.72,7.58-1.56,11.35-2.45,7.53-1.82,15.03-3.82,22.53-5.86l15.81-4.3Z"/>
                  <path class="cls-26" d="M299.93,60.12c-2.2-.5-4.39-.99-6.6-1.46h5.44c4.28.87,8.55,1.8,12.8,2.84,7.56,1.82,15.09,3.85,22.47,6.44l2.76,1.02c.91.37,1.82.72,2.73,1.1l1.35.61c.45.2.9.4,1.34.63l1.32.67c.44.23.87.5,1.3.75l.65.39.62.45c.41.3.85.61,1.21.89.77.57,1.51,1.16,2.29,1.71l2.39,1.58c.82.51,1.65.98,2.48,1.47,1.74.98,3.5,1.91,5.29,2.8h-4.02c-.73-.39-1.46-.8-2.18-1.22-.84-.51-1.69-.99-2.52-1.52l-2.46-1.65c-.8-.58-1.57-1.2-2.36-1.79-.4-.32-.76-.57-1.13-.84l-.55-.41-.6-.36c-.41-.24-.8-.5-1.21-.72l-1.27-.66c-.42-.22-.85-.42-1.29-.62l-1.31-.6c-.88-.38-1.78-.73-2.66-1.1l-2.7-1.02c-3.63-1.31-7.33-2.46-11.04-3.57-3.71-1.1-7.46-2.11-11.21-3.07-3.75-.97-7.53-1.85-11.31-2.73Z"/>
                  <path class="cls-26" d="M263.27,58.27c.58.08,1.13.23,1.69.39.06.01.11.03.17.05.3.09.61.2.91.31.3.13.61.23.89.39.58.28,1.13.63,1.66.99.52.39,1.02.8,1.47,1.25,1.84,1.8,3.2,3.92,4.78,5.77,1.57,1.86,3.37,3.49,5.45,4.7,2.07,1.21,4.37,2.05,6.72,2.59,2.37.53,4.8.85,7.26,1.05,4.91.41,9.87.45,14.86.69,2.49.11,5,.3,7.5.64,1.25.17,2.5.39,3.75.68,1.25.28,2.49.66,3.7,1.19,1.2.52,2.39,1.2,3.4,2.16l.71.77s.05.06.07.1h-2.59c-.69-.53-1.49-.96-2.33-1.31-1.08-.45-2.21-.82-3.39-1.08-1.17-.28-2.37-.49-3.58-.65-2.42-.34-4.88-.52-7.34-.67-4.94-.3-9.92-.4-14.91-.88-2.5-.24-5-.57-7.47-1.18-2.47-.63-4.88-1.55-7.07-2.9-1.1-.67-2.12-1.45-3.07-2.32-.94-.87-1.79-1.82-2.58-2.81-1.58-1.98-2.87-4.11-4.54-5.85-.83-.86-1.78-1.6-2.84-2.15-1.05-.55-2.23-.91-3.41-1.16-1.17-.23-2.39-.23-3.48.2-1.09.43-2.01,1.25-2.85,2.13-.84.89-1.6,1.86-2.36,2.84l-2.26,2.96c-1.52,1.97-3.05,3.94-4.67,5.83l-1.22,1.42c-.2.23-.4.47-.63.7l-.33.35-.35.33c-.94.86-1.98,1.58-3.03,2.26-1.06.68-2.15,1.29-3.27,1.86-1.11.58-2.25,1.11-3.39,1.62-.36.16-.73.32-1.1.48h-2.92c1.22-.44,2.44-.89,3.65-1.38,4.52-1.88,9.18-3.96,12.16-8,1.62-1.88,3.18-3.8,4.68-5.78,1.51-1.97,2.93-4.01,4.61-5.89.83-.89,1.75-1.77,2.93-2.28.04-.02.08-.03.11-.05,1.22-.52,2.59-.56,3.85-.34Z"/>
                </g>
                <path class="cls-14" d="M245.02,58.66h233.17l.04,6.55.1,16.78h-254.31c6.36-7.21,13.52-15.2,21.01-23.33Z"/>
                <polygon class="cls-9" points="126.83 58.66 478.35 58.66 478.39 65.21 120.28 65.21 126.83 58.66"/>
              </g>
            </g>
            <g class="cls-20">
              <g>
                <g>
                  <path class="cls-5" d="M298.67,82.81c-.22,0-.43-.09-.58-.24-.16-.16-.24-.37-.24-.59l.14-23.33c0-.45.37-.82.83-.82h351.36c.22,0,.43.09.58.24l6.55,6.55c.17.17.25.39.24.62l-.87,16.78c-.02.44-.38.78-.82.78h-357.18Z"/>
                  <path class="cls-26" d="M650.17,58.66l6.55,6.55-.2,3.85-.04.73-.64,12.2h-357.18l.1-16.78.04-6.55h351.36M650.17,57.01h-351.36c-.91,0-1.64.73-1.65,1.64l-.04,6.55-.1,16.78c0,.44.17.86.48,1.17.31.31.73.49,1.17.49h357.18c.88,0,1.6-.69,1.65-1.56l.64-12.2.04-.73.2-3.85c.02-.47-.15-.92-.48-1.25l-6.55-6.55c-.31-.31-.73-.48-1.17-.48h0Z"/>
                </g>
                <g>
                  <path class="cls-26" d="M325.84,61.71l-2.7-1.11s-.09,0-.11.05c-.02.04,0,.09.05.11h0s2.65,1.21,2.65,1.21c.86.44,1.71.91,2.57,1.35l1.24.75c.41.26.83.48,1.22.77.79.55,1.59,1.09,2.33,1.71.77.58,1.48,1.24,2.2,1.87.7.66,1.4,1.33,2.08,2.02,1.38,1.36,2.77,2.77,4.47,3.86,1.68,1.1,3.66,1.73,5.63,2l.74.09c.25.03.5.06.71.1l.67.1.66.19c.22.05.43.14.64.23.21.09.43.17.63.28.41.22.82.42,1.21.69,1.56,1.02,2.95,2.34,4.24,3.75.08.08.16.17.23.26h1.75c-.35-.39-.7-.76-1.06-1.13-1.36-1.42-2.84-2.77-4.56-3.84-.42-.28-.88-.5-1.34-.73-.22-.11-.47-.19-.71-.29-.24-.1-.47-.19-.73-.25l-.75-.2-.77-.1-.73-.08-.7-.07c-1.88-.22-3.7-.75-5.3-1.74-1.61-.97-3-2.32-4.42-3.64-.71-.67-1.43-1.32-2.16-1.97-.76-.63-1.49-1.27-2.29-1.83-.77-.61-1.6-1.12-2.42-1.66-.4-.28-.84-.5-1.26-.74l-1.27-.72c-.88-.43-1.75-.87-2.64-1.27Z"/>
                  <path class="cls-26" d="M564.07,58.66h-3.96s19.38,5.71,19.38,5.71c3.74,1.06,7.48,2.13,11.24,3.12,3.76.99,7.53,1.97,11.32,2.83,3.8.87,7.61,1.68,11.45,2.38,3.84.69,7.71,1.27,11.62,1.55.98.05,1.96.15,2.94.14l1.48.02c.49,0,.99-.04,1.48-.06.99-.02,1.96-.14,2.93-.23.97-.1,1.95-.16,2.91-.3,3.88-.45,7.72-1.13,11.54-1.95,2.73-.58,5.42-1.29,8.08-2.1l.04-.73c-2.75.74-5.52,1.38-8.31,1.93-3.8.73-7.63,1.32-11.47,1.69-.96.12-1.93.16-2.89.24-.96.06-1.93.17-2.88.17-.48,0-.96.03-1.43.03l-1.43-.04c-.96,0-1.92-.11-2.88-.17-3.83-.31-7.66-.91-11.46-1.63-3.8-.72-7.58-1.56-11.35-2.45-7.53-1.82-15.03-3.82-22.53-5.86l-15.81-4.3Z"/>
                  <path class="cls-26" d="M477.07,60.12c2.2-.5,4.39-.99,6.6-1.46h-5.44c-4.28.87-8.55,1.8-12.8,2.84-7.56,1.82-15.09,3.85-22.47,6.44l-2.76,1.02c-.91.37-1.82.72-2.73,1.1l-1.35.61c-.45.2-.9.4-1.34.63l-1.32.67c-.44.23-.87.5-1.3.75l-.65.39-.62.45c-.41.3-.85.61-1.21.89-.77.57-1.51,1.16-2.29,1.71l-2.39,1.58c-.82.51-1.65.98-2.48,1.47-1.74.98-3.5,1.91-5.29,2.8h4.02c.73-.39,1.46-.8,2.18-1.22.84-.51,1.69-.99,2.52-1.52l2.46-1.65c.8-.58,1.57-1.2,2.36-1.79.4-.32.76-.57,1.13-.84l.55-.41.6-.36c.41-.24.8-.5,1.21-.72l1.27-.66c.42-.22.85-.42,1.29-.62l1.31-.6c.88-.38,1.78-.73,2.66-1.1l2.7-1.02c3.63-1.31,7.33-2.46,11.04-3.57,3.71-1.1,7.46-2.11,11.21-3.07,3.75-.97,7.53-1.85,11.31-2.73Z"/>
                  <path class="cls-26" d="M513.73,58.27c-.58.08-1.13.23-1.69.39-.06.01-.11.03-.17.05-.3.09-.61.2-.91.31-.3.13-.61.23-.89.39-.58.28-1.13.63-1.66.99-.52.39-1.02.8-1.47,1.25-1.84,1.8-3.2,3.92-4.78,5.77-1.57,1.86-3.37,3.49-5.45,4.7-2.07,1.21-4.37,2.05-6.72,2.59-2.37.53-4.8.85-7.26,1.05-4.91.41-9.87.45-14.86.69-2.49.11-5,.3-7.5.64-1.25.17-2.5.39-3.75.68-1.25.28-2.49.66-3.7,1.19-1.2.52-2.39,1.2-3.4,2.16l-.71.77s-.05.06-.07.1h2.59c.69-.53,1.49-.96,2.33-1.31,1.08-.45,2.21-.82,3.39-1.08,1.17-.28,2.37-.49,3.58-.65,2.42-.34,4.88-.52,7.34-.67,4.94-.3,9.92-.4,14.91-.88,2.5-.24,5-.57,7.47-1.18,2.47-.63,4.88-1.55,7.07-2.9,1.1-.67,2.12-1.45,3.07-2.32.94-.87,1.79-1.82,2.58-2.81,1.58-1.98,2.87-4.11,4.54-5.85.83-.86,1.78-1.6,2.84-2.15,1.05-.55,2.23-.91,3.41-1.16,1.17-.23,2.39-.23,3.48.2,1.09.43,2.01,1.25,2.85,2.13.84.89,1.6,1.86,2.36,2.84l2.26,2.96c1.52,1.97,3.05,3.94,4.67,5.83l1.22,1.42c.2.23.4.47.63.7l.33.35.35.33c.94.86,1.98,1.58,3.03,2.26,1.06.68,2.15,1.29,3.27,1.86,1.11.58,2.25,1.11,3.39,1.62.36.16.73.32,1.1.48h2.92c-1.22-.44-2.44-.89-3.65-1.38-4.52-1.88-9.18-3.96-12.16-8-1.62-1.88-3.18-3.8-4.68-5.78-1.51-1.97-2.93-4.01-4.61-5.89-.83-.89-1.75-1.77-2.93-2.28-.04-.02-.08-.03-.11-.05-1.22-.52-2.59-.56-3.85-.34Z"/>
                </g>
                <path class="cls-10" d="M531.98,58.66h-233.17s-.04,6.55-.04,6.55l-.1,16.78h254.31c-6.36-7.21-13.52-15.2-21.01-23.33Z"/>
                <polygon class="cls-9" points="650.17 58.66 298.65 58.66 298.61 65.21 656.72 65.21 650.17 58.66"/>
              </g>
            </g>
          </g>
          <g>
            <g class="cls-21">
              <g>
                <g>
                  <path class="cls-3" d="M1710.15,84.81c-.44,0-.8-.34-.82-.78l-.87-16.78c-.01-.23.08-.46.24-.62l6.55-6.55c.15-.15.36-.24.58-.24h351.36c.45,0,.82.37.83.82l.14,23.33c0,.22-.08.43-.24.59-.15.16-.37.24-.58.24h-357.18Z"/>
                  <path class="cls-26" d="M2067.19,60.66l.04,6.55.1,16.78h-357.18l-.63-12.2-.04-.73-.2-3.85,6.55-6.55h351.36M2067.19,59.01h-351.36c-.44,0-.86.17-1.17.48l-6.55,6.55c-.33.33-.51.79-.48,1.25l.2,3.85.04.73.63,12.2c.05.88.77,1.56,1.65,1.56h357.18c.44,0,.86-.18,1.17-.49.31-.31.48-.73.48-1.17l-.1-16.78-.04-6.55c0-.91-.74-1.64-1.65-1.64h0Z"/>
                </g>
                <g>
                  <path class="cls-26" d="M2040.16,63.71l2.7-1.11s.09,0,.11.05c.02.04,0,.09-.05.11h0s-2.65,1.21-2.65,1.21c-.86.44-1.71.91-2.57,1.35l-1.24.75c-.41.26-.83.48-1.22.77-.79.55-1.59,1.09-2.33,1.71-.77.58-1.48,1.24-2.2,1.87-.7.66-1.4,1.33-2.08,2.02-1.38,1.36-2.77,2.77-4.47,3.86-1.68,1.1-3.66,1.73-5.63,2l-.74.09c-.25.03-.5.06-.71.1l-.67.1-.66.19c-.22.05-.43.14-.64.23-.21.09-.43.17-.63.28-.41.22-.82.42-1.21.69-1.56,1.02-2.95,2.34-4.24,3.75-.08.08-.16.17-.23.26h-1.75c.35-.39.7-.76,1.06-1.13,1.36-1.42,2.84-2.77,4.56-3.84.42-.28.88-.5,1.34-.73.22-.11.47-.19.71-.29.24-.1.47-.19.73-.25l.75-.2.77-.1.73-.08.7-.07c1.88-.22,3.7-.75,5.3-1.74,1.61-.97,3-2.32,4.42-3.64.71-.67,1.43-1.32,2.16-1.97.76-.63,1.49-1.27,2.29-1.83.77-.61,1.6-1.12,2.42-1.66.4-.28.84-.5,1.26-.74l1.27-.72c.88-.43,1.75-.87,2.64-1.27Z"/>
                  <path class="cls-26" d="M1801.93,60.66h3.96l-19.38,5.71c-3.74,1.06-7.48,2.13-11.24,3.12-3.76.99-7.53,1.97-11.32,2.83-3.8.87-7.61,1.68-11.45,2.38-3.84.69-7.71,1.27-11.62,1.55-.98.05-1.96.15-2.94.14l-1.48.02c-.49,0-.99-.04-1.48-.06-.99-.02-1.96-.14-2.93-.23-.97-.1-1.95-.16-2.91-.3-3.88-.45-7.72-1.13-11.54-1.95-2.73-.58-5.42-1.29-8.08-2.1l-.04-.73c2.75.74,5.52,1.38,8.31,1.93,3.8.73,7.63,1.32,11.47,1.69.96.12,1.93.16,2.89.24.96.06,1.93.17,2.88.17.48,0,.96.03,1.43.03l1.43-.04c.96,0,1.92-.11,2.88-.17,3.83-.31,7.66-.91,11.46-1.63,3.8-.72,7.58-1.56,11.35-2.45,7.53-1.82,15.03-3.82,22.53-5.86l15.81-4.3Z"/>
                  <path class="cls-26" d="M1888.93,62.12c-2.2-.5-4.39-.99-6.6-1.46h5.44c4.28.87,8.55,1.8,12.8,2.84,7.56,1.82,15.09,3.85,22.47,6.44l2.76,1.02c.91.37,1.82.72,2.73,1.1l1.35.61c.45.2.9.4,1.34.63l1.32.67c.44.23.87.5,1.3.75l.65.39.62.45c.41.3.85.61,1.21.89.77.57,1.51,1.16,2.29,1.71l2.39,1.58c.82.51,1.65.98,2.48,1.47,1.74.98,3.5,1.91,5.29,2.8h-4.02c-.73-.39-1.46-.8-2.18-1.22-.84-.51-1.69-.99-2.52-1.52l-2.46-1.65c-.8-.58-1.57-1.2-2.36-1.79-.4-.32-.76-.57-1.13-.84l-.55-.41-.6-.36c-.41-.24-.8-.5-1.21-.72l-1.27-.66c-.42-.22-.85-.42-1.29-.62l-1.31-.6c-.88-.38-1.78-.73-2.66-1.1l-2.7-1.02c-3.63-1.31-7.33-2.46-11.04-3.57-3.71-1.1-7.46-2.11-11.21-3.07-3.75-.97-7.53-1.85-11.31-2.73Z"/>
                  <path class="cls-26" d="M1852.27,60.27c.58.08,1.13.23,1.69.39.06.01.11.03.17.05.3.09.61.2.91.31.3.13.61.23.89.39.58.28,1.13.63,1.66.99.52.39,1.02.8,1.47,1.25,1.84,1.8,3.2,3.92,4.78,5.77,1.57,1.86,3.37,3.49,5.45,4.7,2.07,1.21,4.37,2.05,6.72,2.59,2.37.53,4.8.85,7.26,1.05,4.91.41,9.87.45,14.86.69,2.49.11,5,.3,7.5.64,1.25.17,2.5.39,3.75.68,1.25.28,2.49.66,3.7,1.19,1.2.52,2.39,1.2,3.4,2.16l.71.77s.05.06.07.1h-2.59c-.69-.53-1.49-.96-2.33-1.31-1.08-.45-2.21-.82-3.39-1.08-1.17-.28-2.37-.49-3.58-.65-2.42-.34-4.88-.52-7.34-.67-4.94-.3-9.92-.4-14.91-.88-2.5-.24-5-.57-7.47-1.18-2.47-.63-4.88-1.55-7.07-2.9-1.1-.67-2.12-1.45-3.07-2.32-.94-.87-1.79-1.82-2.58-2.81-1.58-1.98-2.87-4.11-4.54-5.85-.83-.86-1.78-1.6-2.84-2.15-1.05-.55-2.23-.91-3.41-1.16-1.17-.23-2.39-.23-3.48.2-1.09.43-2.01,1.25-2.85,2.13-.84.89-1.6,1.86-2.36,2.84l-2.26,2.96c-1.52,1.97-3.05,3.94-4.67,5.83l-1.22,1.42c-.2.23-.4.47-.63.7l-.33.35-.35.33c-.94.86-1.98,1.58-3.03,2.26-1.06.68-2.15,1.29-3.27,1.86-1.11.58-2.25,1.11-3.39,1.62-.36.16-.73.32-1.1.48h-2.92c1.22-.44,2.44-.89,3.65-1.38,4.52-1.88,9.18-3.96,12.16-8,1.62-1.88,3.18-3.8,4.68-5.78,1.51-1.97,2.93-4.01,4.61-5.89.83-.89,1.75-1.77,2.93-2.28.04-.02.08-.03.11-.05,1.22-.52,2.59-.56,3.85-.34Z"/>
                </g>
                <path class="cls-11" d="M1834.02,60.66h233.17l.04,6.55.1,16.78h-254.31c6.36-7.21,13.52-15.2,21.01-23.33Z"/>
                <polygon class="cls-9" points="1715.83 60.66 2067.35 60.66 2067.39 67.21 1709.28 67.21 1715.83 60.66"/>
              </g>
            </g>
            <g class="cls-23">
              <g>
                <g>
                  <path class="cls-4" d="M1887.67,84.81c-.22,0-.43-.09-.58-.24-.16-.16-.24-.37-.24-.59l.14-23.33c0-.45.37-.82.83-.82h351.36c.22,0,.43.09.58.24l6.55,6.55c.17.17.25.39.24.62l-.87,16.78c-.02.44-.38.78-.82.78h-357.18Z"/>
                  <path class="cls-26" d="M2239.17,60.66l6.55,6.55-.2,3.85-.04.73-.63,12.2h-357.18l.1-16.78.04-6.55h351.36M2239.17,59.01h-351.36c-.91,0-1.64.73-1.65,1.64l-.04,6.55-.1,16.78c0,.44.17.86.48,1.17.31.31.73.49,1.17.49h357.18c.88,0,1.6-.69,1.65-1.56l.63-12.2.04-.73.2-3.85c.02-.47-.15-.92-.48-1.25l-6.55-6.55c-.31-.31-.73-.48-1.17-.48h0Z"/>
                </g>
                <g>
                  <path class="cls-26" d="M1914.84,63.71l-2.7-1.11s-.09,0-.11.05c-.02.04,0,.09.05.11h0s2.65,1.21,2.65,1.21c.86.44,1.71.91,2.57,1.35l1.24.75c.41.26.83.48,1.22.77.79.55,1.59,1.09,2.33,1.71.77.58,1.48,1.24,2.2,1.87.7.66,1.4,1.33,2.08,2.02,1.38,1.36,2.77,2.77,4.47,3.86,1.68,1.1,3.66,1.73,5.63,2l.74.09c.25.03.5.06.71.1l.67.1.66.19c.22.05.43.14.64.23.21.09.43.17.63.28.41.22.82.42,1.21.69,1.56,1.02,2.95,2.34,4.24,3.75.08.08.16.17.23.26h1.75c-.35-.39-.7-.76-1.06-1.13-1.36-1.42-2.84-2.77-4.56-3.84-.42-.28-.88-.5-1.34-.73-.22-.11-.47-.19-.71-.29-.24-.1-.47-.19-.73-.25l-.75-.2-.77-.1-.73-.08-.7-.07c-1.88-.22-3.7-.75-5.3-1.74-1.61-.97-3-2.32-4.42-3.64-.71-.67-1.43-1.32-2.16-1.97-.76-.63-1.49-1.27-2.29-1.83-.77-.61-1.6-1.12-2.42-1.66-.4-.28-.84-.5-1.26-.74l-1.27-.72c-.88-.43-1.75-.87-2.64-1.27Z"/>
                  <path class="cls-26" d="M2153.07,60.66h-3.96s19.38,5.71,19.38,5.71c3.74,1.06,7.48,2.13,11.24,3.12,3.76.99,7.53,1.97,11.32,2.83,3.8.87,7.61,1.68,11.45,2.38,3.84.69,7.71,1.27,11.62,1.55.98.05,1.96.15,2.94.14l1.48.02c.49,0,.99-.04,1.48-.06.99-.02,1.96-.14,2.93-.23.97-.1,1.95-.16,2.91-.3,3.88-.45,7.72-1.13,11.54-1.95,2.73-.58,5.42-1.29,8.08-2.1l.04-.73c-2.75.74-5.52,1.38-8.31,1.93-3.8.73-7.63,1.32-11.47,1.69-.96.12-1.93.16-2.89.24-.96.06-1.93.17-2.88.17-.48,0-.96.03-1.43.03l-1.43-.04c-.96,0-1.92-.11-2.88-.17-3.83-.31-7.66-.91-11.46-1.63-3.8-.72-7.58-1.56-11.35-2.45-7.53-1.82-15.03-3.82-22.53-5.86l-15.81-4.3Z"/>
                  <path class="cls-26" d="M2066.07,62.12c2.2-.5,4.39-.99,6.6-1.46h-5.44c-4.28.87-8.55,1.8-12.8,2.84-7.56,1.82-15.09,3.85-22.47,6.44l-2.76,1.02c-.91.37-1.82.72-2.73,1.1l-1.35.61c-.45.2-.9.4-1.34.63l-1.32.67c-.44.23-.87.5-1.3.75l-.65.39-.62.45c-.41.3-.85.61-1.21.89-.77.57-1.51,1.16-2.29,1.71l-2.39,1.58c-.82.51-1.65.98-2.48,1.47-1.74.98-3.5,1.91-5.29,2.8h4.02c.73-.39,1.46-.8,2.18-1.22.84-.51,1.69-.99,2.52-1.52l2.46-1.65c.8-.58,1.57-1.2,2.36-1.79.4-.32.76-.57,1.13-.84l.55-.41.6-.36c.41-.24.8-.5,1.21-.72l1.27-.66c.42-.22.85-.42,1.29-.62l1.31-.6c.88-.38,1.78-.73,2.66-1.1l2.7-1.02c3.63-1.31,7.33-2.46,11.04-3.57,3.71-1.1,7.46-2.11,11.21-3.07,3.75-.97,7.53-1.85,11.31-2.73Z"/>
                  <path class="cls-26" d="M2102.73,60.27c-.58.08-1.13.23-1.69.39-.06.01-.11.03-.17.05-.3.09-.61.2-.91.31-.3.13-.61.23-.89.39-.58.28-1.13.63-1.66.99-.52.39-1.02.8-1.47,1.25-1.84,1.8-3.2,3.92-4.78,5.77-1.57,1.86-3.37,3.49-5.45,4.7-2.07,1.21-4.37,2.05-6.72,2.59-2.37.53-4.8.85-7.26,1.05-4.91.41-9.87.45-14.86.69-2.49.11-5,.3-7.5.64-1.25.17-2.5.39-3.75.68-1.25.28-2.49.66-3.7,1.19-1.2.52-2.39,1.2-3.4,2.16l-.71.77s-.05.06-.07.1h2.59c.69-.53,1.49-.96,2.33-1.31,1.08-.45,2.21-.82,3.39-1.08,1.17-.28,2.37-.49,3.58-.65,2.42-.34,4.88-.52,7.34-.67,4.94-.3,9.92-.4,14.91-.88,2.5-.24,5-.57,7.47-1.18,2.47-.63,4.88-1.55,7.07-2.9,1.1-.67,2.12-1.45,3.07-2.32.94-.87,1.79-1.82,2.58-2.81,1.58-1.98,2.87-4.11,4.54-5.85.83-.86,1.78-1.6,2.84-2.15,1.05-.55,2.23-.91,3.41-1.16,1.17-.23,2.39-.23,3.48.2,1.09.43,2.01,1.25,2.85,2.13.84.89,1.6,1.86,2.36,2.84l2.26,2.96c1.52,1.97,3.05,3.94,4.67,5.83l1.22,1.42c.2.23.4.47.63.7l.33.35.35.33c.94.86,1.98,1.58,3.03,2.26,1.06.68,2.15,1.29,3.27,1.86,1.11.58,2.25,1.11,3.39,1.62.36.16.73.32,1.1.48h2.92c-1.22-.44-2.44-.89-3.65-1.38-4.52-1.88-9.18-3.96-12.16-8-1.62-1.88-3.18-3.8-4.68-5.78-1.51-1.97-2.93-4.01-4.61-5.89-.83-.89-1.75-1.77-2.93-2.28-.04-.02-.08-.03-.11-.05-1.22-.52-2.59-.56-3.85-.34Z"/>
                </g>
                <path class="cls-12" d="M2120.98,60.66h-233.17s-.04,6.55-.04,6.55l-.1,16.78h254.31c-6.36-7.21-13.52-15.2-21.01-23.33Z"/>
                <polygon class="cls-9" points="2239.17 60.66 1887.65 60.66 1887.61 67.21 2245.72 67.21 2239.17 60.66"/>
              </g>
            </g>
          </g>
          <g>
            <g>
              <rect class="cls-15" x="989.09" y="53.83" width="383.83" height="34.68"/>
              <path class="cls-2" d="M1369.28,57.46v27.41h-376.56v-27.41h376.56M1376.55,50.19h-391.1v41.95h391.1v-41.95h0Z"/>
            </g>
            <path class="cls-25" d="M1363.31,63.43v15.47h-364.62v-15.47h364.62M1369.28,57.46h-376.56v27.41h376.56v-27.41h0Z"/>
            <g>
              <g>
                <g>
                  <line class="cls-24" x1="1068.35" y1="57.46" x2="1068.35" y2="84.88"/>
                  <path class="cls-2" d="M1068.35,57.46c1.53,4.49,1.91,9.06,1.96,13.71-.04,4.65-.42,9.22-1.96,13.71-1.54-4.48-1.91-9.06-1.96-13.71.05-4.65.43-9.22,1.96-13.71h0Z"/>
                </g>
                <g>
                  <line class="cls-24" x1="1045.34" y1="57.46" x2="1045.34" y2="84.88"/>
                  <path class="cls-2" d="M1045.34,57.46c1.53,4.49,1.91,9.06,1.96,13.71-.04,4.65-.42,9.22-1.96,13.71-1.54-4.48-1.91-9.06-1.96-13.71.05-4.65.43-9.22,1.96-13.71h0Z"/>
                </g>
                <g>
                  <line class="cls-24" x1="1022.33" y1="57.46" x2="1022.33" y2="84.88"/>
                  <path class="cls-2" d="M1022.33,57.46c1.53,4.49,1.91,9.06,1.96,13.71-.04,4.65-.42,9.22-1.96,13.71-1.54-4.48-1.91-9.06-1.96-13.71.05-4.65.43-9.22,1.96-13.71h0Z"/>
                </g>
              </g>
              <g>
                <g>
                  <line class="cls-24" x1="1066.54" y1="57.46" x2="1066.54" y2="84.88"/>
                  <path class="cls-16" d="M1066.54,57.46c1.34,9.08,1.35,18.34,0,27.41-1.35-9.08-1.34-18.34,0-27.41h0Z"/>
                </g>
                <g>
                  <line class="cls-24" x1="1043.53" y1="57.46" x2="1043.53" y2="84.88"/>
                  <path class="cls-16" d="M1043.53,57.46c1.34,9.08,1.35,18.34,0,27.41-1.35-9.08-1.34-18.34,0-27.41h0Z"/>
                </g>
                <g>
                  <line class="cls-24" x1="1020.52" y1="57.46" x2="1020.52" y2="84.88"/>
                  <path class="cls-16" d="M1020.52,57.46c1.34,9.08,1.35,18.34,0,27.41-1.35-9.08-1.34-18.34,0-27.41h0Z"/>
                </g>
              </g>
            </g>
            <g>
              <g>
                <g>
                  <line class="cls-24" x1="1330.9" y1="57.46" x2="1330.9" y2="84.88"/>
                  <path class="cls-2" d="M1330.9,57.46c1.53,4.49,1.91,9.06,1.96,13.71-.04,4.65-.42,9.22-1.96,13.71-1.54-4.48-1.91-9.06-1.96-13.71.05-4.65.43-9.22,1.96-13.71h0Z"/>
                </g>
                <g>
                  <line class="cls-24" x1="1307.89" y1="57.46" x2="1307.89" y2="84.88"/>
                  <path class="cls-2" d="M1307.89,57.46c1.53,4.49,1.91,9.06,1.96,13.71-.04,4.65-.42,9.22-1.96,13.71-1.54-4.48-1.91-9.06-1.96-13.71.05-4.65.43-9.22,1.96-13.71h0Z"/>
                </g>
                <g>
                  <line class="cls-24" x1="1284.88" y1="57.46" x2="1284.88" y2="84.88"/>
                  <path class="cls-2" d="M1284.88,57.46c1.53,4.49,1.91,9.06,1.96,13.71-.04,4.65-.42,9.22-1.96,13.71-1.54-4.48-1.91-9.06-1.96-13.71.05-4.65.43-9.22,1.96-13.71h0Z"/>
                </g>
              </g>
              <g>
                <g>
                  <line class="cls-24" x1="1329.09" y1="57.46" x2="1329.09" y2="84.88"/>
                  <path class="cls-16" d="M1329.09,57.46c1.34,9.08,1.35,18.34,0,27.41-1.35-9.08-1.34-18.34,0-27.41h0Z"/>
                </g>
                <g>
                  <line class="cls-24" x1="1306.08" y1="57.46" x2="1306.08" y2="84.88"/>
                  <path class="cls-16" d="M1306.08,57.46c1.34,9.08,1.35,18.34,0,27.41-1.35-9.08-1.34-18.34,0-27.41h0Z"/>
                </g>
                <g>
                  <line class="cls-24" x1="1283.07" y1="57.46" x2="1283.07" y2="84.88"/>
                  <path class="cls-16" d="M1283.07,57.46c1.34,9.08,1.35,18.34,0,27.41-1.35-9.08-1.34-18.34,0-27.41h0Z"/>
                </g>
              </g>
            </g>
            <ellipse class="cls-25" cx="1215.93" cy="63.15" rx="20.5" ry="4.45"/>
            <ellipse class="cls-25" cx="1215.28" cy="72.16" rx="10.36" ry="3.1"/>
          </g>
        </g>
      </g>
    </g>
  </g>
</svg>