<?xml version="1.0" encoding="UTF-8"?>
<svg id="Layer_2" data-name="Layer 2" xmlns="http://www.w3.org/2000/svg" viewBox="0 0 87.95 88.18">
  <defs>
    <style>
      .cls-1 {
        fill: #575159;
      }

      .cls-2 {
        fill: #fff;
      }
    </style>
  </defs>
  <g id="Layer_1-2" data-name="Layer 1">
    <g>
      <path class="cls-2" d="M43.88,87.18C20.36,87.18,1.12,67.93,1,44.27c-.06-11.53,4.36-22.37,12.46-30.53C21.58,5.55,32.43,1.03,44.02,1h.11c23.47,0,42.68,19.03,42.81,42.42.07,11.81-4.39,22.85-12.54,31.09-8.04,8.12-18.81,12.62-30.33,12.67h-.19ZM35.17,60.08c-1.2,0-2.73.36-3.25,2.07-.51,1.69.64,3.45,2.67,4.1,1.19.38,2.42.65,3.72.93.6.13,1.21.26,1.83.41l.71.17.11,1.44c.04.52.09,1.03.11,1.54.15,4,1.89,4,2.64,4,.09,0,.17,0,.26,0,.97-.06,1.7-.36,2.16-.89.68-.78.75-1.99.68-2.87-.18-2.53.72-3.9,3.23-4.89,5.02-1.97,7.82-5.62,8.31-10.85.49-5.24-1.57-9.33-6.14-12.17-1.36-.84-2.85-1.57-4.3-2.28-.7-.34-1.4-.68-2.1-1.04-.49-.25-1-.48-1.52-.71-1.3-.57-2.64-1.17-3.69-2.17-1.13-1.08-2.79-3.5-2.39-5.38.4-1.9,2.55-4.11,4.33-4.47.76-.15,1.57-.23,2.48-.23,1.48,0,2.98.2,4.43.39.4.05.79.1,1.18.15.29.04.58.06.85.06,1.64,0,2.56-.68,3.01-2.2.54-1.87-.12-3.15-1.99-3.81-.89-.32-1.84-.55-2.84-.79-.48-.12-.96-.23-1.46-.37l-.67-.18-.14-1.3c-.05-.45-.1-.88-.12-1.32-.11-2-.84-4.14-2.57-4.14-.09,0-.18,0-.27.02-2.62.3-2.98,2.28-2.82,3.89.29,2.85-1.34,3.8-3.19,4.59-6.43,2.77-9.48,8.94-7.41,14.99,1.37,4,4.56,6.22,8.92,8.32.77.37,1.54.72,2.31,1.07,1.71.78,3.49,1.59,5.16,2.56,2.84,1.64,4.01,4.42,3.2,7.63-.7,2.79-2.99,4.55-6.12,4.7-.29.01-.58.02-.87.02-2.38,0-4.77-.44-7.08-.87-.54-.1-.97-.14-1.38-.14Z"/>
      <path class="cls-1" d="M44.13,2c22.77,0,41.68,18.73,41.81,41.43.14,23.69-18.43,42.65-41.87,42.75-.06,0-.13,0-.19,0-23.01,0-41.76-18.74-41.88-41.92C1.88,20.94,20.65,2.06,44.03,2c.03,0,.07,0,.11,0M43.62,60.09c-2.32,0-4.68-.44-6.98-.87-.51-.09-1-.14-1.47-.14-2.08,0-3.65.94-4.2,2.78-.65,2.17.7,4.5,3.32,5.34,1.8.58,3.68.9,5.63,1.36.06.77.14,1.49.16,2.21.12,3.25,1.3,4.96,3.64,4.96.11,0,.21,0,.33-.01,2.96-.19,3.97-2.22,3.78-4.83-.15-2.12.53-3.07,2.6-3.88,5.21-2.05,8.4-5.93,8.94-11.68.54-5.75-1.78-10.11-6.61-13.11-2.06-1.28-4.31-2.25-6.47-3.36-1.69-.87-3.66-1.45-4.98-2.71-1.15-1.1-2.38-3.14-2.1-4.45.31-1.47,2.11-3.41,3.55-3.69.74-.15,1.51-.21,2.28-.21,1.81,0,3.68.31,5.49.54.34.04.66.06.97.06,1.96,0,3.37-.86,3.97-2.92.7-2.38-.24-4.19-2.62-5.03-1.38-.49-2.82-.77-4.37-1.18-.07-.65-.15-1.26-.19-1.88-.17-3.07-1.5-5.09-3.57-5.09-.13,0-.25,0-.39.02-2.84.33-3.97,2.34-3.7,4.98.21,2.14-.84,2.82-2.59,3.58-6.95,2.99-10.2,9.68-7.96,16.23,1.56,4.58,5.35,6.93,9.44,8.9,2.47,1.19,5.03,2.23,7.41,3.6,2.45,1.41,3.44,3.71,2.73,6.52-.67,2.64-2.84,3.83-5.2,3.95-.27.01-.55.02-.82.02M44.14,0h-.12c-11.86.03-22.97,4.66-31.27,13.03C4.47,21.38-.06,32.47,0,44.27c.13,24.21,19.81,43.91,43.88,43.91h.2c11.79-.05,22.81-4.66,31.04-12.97,8.34-8.43,12.9-19.72,12.83-31.8-.07-11.51-4.69-22.39-13.01-30.63C66.62,4.54,55.68,0,44.14,0h0ZM43.62,62.09c.31,0,.61,0,.92-.02,3.59-.17,6.23-2.21,7.05-5.46.93-3.68-.41-6.86-3.67-8.74-1.71-.99-3.51-1.81-5.24-2.6-.77-.35-1.54-.7-2.3-1.07-4.14-1.99-7.15-4.07-8.41-7.74-1.89-5.54.93-11.19,6.86-13.75,1.46-.63,4.17-1.8,3.79-5.61-.22-2.24.86-2.67,1.94-2.8.05,0,.11,0,.16,0,.96,0,1.48,1.61,1.57,3.2.03.48.08.93.13,1.38.02.19.04.39.06.59l.14,1.38,1.34.35c.5.13,1,.25,1.48.37.97.24,1.89.46,2.74.76,1.38.49,1.77,1.22,1.37,2.59-.32,1.1-.86,1.48-2.05,1.48-.22,0-.47-.02-.72-.05-.39-.05-.78-.1-1.17-.15-1.48-.2-3.01-.4-4.56-.4-.97,0-1.85.08-2.67.24-2.19.44-4.63,2.93-5.12,5.24-.52,2.47,1.52,5.21,2.68,6.31,1.18,1.12,2.67,1.78,3.98,2.36.52.23,1.01.45,1.46.68.7.36,1.41.71,2.12,1.05,1.49.72,2.89,1.41,4.21,2.23,4.28,2.66,6.13,6.33,5.67,11.23-.45,4.82-3.04,8.19-7.68,10.01-2.92,1.15-4.07,2.91-3.86,5.89.07.98-.09,1.74-.44,2.14-.28.32-.77.5-1.47.55-.07,0-.13,0-.2,0-.53,0-1.53,0-1.64-3.03-.02-.54-.07-1.07-.11-1.58-.02-.23-.04-.46-.06-.7l-.11-1.46-1.43-.34c-.62-.15-1.24-.28-1.85-.41-1.28-.27-2.49-.53-3.63-.9-1.5-.48-2.36-1.72-2.02-2.87.1-.34.41-1.36,2.29-1.36.34,0,.72.04,1.1.11l.09.02c2.35.43,4.78.88,7.26.88h0Z"/>
    </g>
  </g>
</svg>