<?xml version="1.0" encoding="UTF-8"?>
<svg id="Layer_2" data-name="Layer 2" xmlns="http://www.w3.org/2000/svg" viewBox="0 0 66.96 92.17">
  <defs>
    <style>
      .cls-1 {
        fill: #575159;
      }

      .cls-2 {
        fill: #fff;
      }
    </style>
  </defs>
  <g id="Layer_1-2" data-name="Layer 1">
    <g>
      <path class="cls-2" d="M33.45,91.17c-.15,0-.31,0-.47-.01-3.5-.22-6.42-3.03-6.78-6.54-.24-2.35.64-4.54,2.24-6.06H1v-8.13l.88-.11c.17-.02.34-.04.51-.06.31-.03.63-.06.94-.13,1.92-.4,3.12-1.6,3.67-3.67.17-.66.27-1.38.27-2.08v-2.38c.03-7.23.05-14.71,0-22.06-.07-11.63,7.69-21.95,18.91-25.23-.01-2.14-.02-4.27,0-6.4.03-3.42,2.36-6.36,5.68-7.14.53-.13,1.08-.19,1.62-.19,3.98,0,7.25,3.21,7.29,7.15.02,2.2.01,4.39,0,6.59,8.81,2.78,14.75,8.56,17.7,17.22.82,2.4,1.22,4.98,1.21,7.89,0,8.38,0,16.77,0,25.15,0,1.39.33,2.52,1.02,3.46.76,1.05,1.86,1.62,3.45,1.78.17.02.35.03.52.04l.64.04.62.53.03.48v7.22h-27.5c.37.35.7.73.99,1.16,1.21,1.74,1.6,3.66,1.15,5.7-.75,3.4-3.69,5.77-7.15,5.77Z"/>
      <path class="cls-1" d="M33.47,2c3.31,0,6.26,2.71,6.29,6.16.03,2.29.01,4.57,0,6.86,0,.35.09.48.44.59,8.6,2.62,14.41,8.15,17.32,16.67.83,2.44,1.16,4.98,1.16,7.56,0,8.38,0,16.77,0,25.15,0,1.46.33,2.85,1.21,4.05,1.02,1.41,2.48,2.01,4.15,2.19.29.03.58.04.86.06.01,0,.02.01.05.04v6.22h-30.58c1.76.39,3.22,1.24,4.26,2.73,1.04,1.49,1.38,3.15.99,4.92-.65,2.96-3.22,4.98-6.17,4.98-.13,0-.27,0-.4-.01-3.03-.19-5.54-2.62-5.85-5.64-.33-3.18,1.83-6.32,5.39-6.96H2v-6.25c.51-.06,1.02-.09,1.52-.19,2.43-.5,3.82-2.08,4.43-4.4.2-.75.3-1.55.3-2.33.02-8.15.05-16.29,0-24.44-.07-11.48,7.71-21.36,18.53-24.36.3-.08.38-.22.38-.52-.01-2.25-.02-4.49,0-6.74.02-2.98,2.03-5.5,4.9-6.18.47-.11.93-.16,1.39-.16M33.47,0c-.62,0-1.25.07-1.85.22-3.77.89-6.42,4.22-6.45,8.11-.01,1.82-.01,3.62,0,5.67-11.26,3.62-18.97,14.14-18.91,25.97.04,7.32.02,14.76,0,21.96v2.47c0,.62-.09,1.25-.24,1.83-.45,1.72-1.35,2.63-2.9,2.95-.24.05-.53.08-.84.11-.18.02-.35.04-.53.06l-1.75.22v10.02h26.36c-.91,1.5-1.34,3.29-1.15,5.16.41,3.99,3.73,7.18,7.72,7.43.18.01.35.02.53.02,3.94,0,7.28-2.69,8.13-6.55.47-2.13.11-4.22-1.03-6.07h26.41v-9.21l-.76-.58c-.42-.34-.85-.44-1.15-.46l-.32-.02c-.16,0-.32-.02-.48-.03-1.3-.13-2.15-.56-2.74-1.37-.55-.76-.82-1.7-.82-2.88,0-8.38,0-16.77,0-25.15,0-3.02-.41-5.7-1.27-8.21-2.98-8.75-8.92-14.68-17.64-17.62.01-1.9.02-3.89,0-5.87-.05-4.49-3.77-8.14-8.29-8.14h0Z"/>
    </g>
  </g>
</svg>