<?xml version="1.0" encoding="UTF-8"?>
<svg id="Layer_2" data-name="Layer 2" xmlns="http://www.w3.org/2000/svg" viewBox="0 0 75.73 79.43">
  <defs>
    <style>
      .cls-1 {
        fill: #575159;
      }

      .cls-2 {
        fill: #fff;
      }
    </style>
  </defs>
  <g id="Layer_1-2" data-name="Layer 1">
    <g>
      <path class="cls-2" d="M38.11,77.82c-1.14,0-1.94-.76-2.72-1.61l-2.7-2.93c-2.58-2.8-5.24-5.69-7.9-8.49-.25-.27-.72-.46-1-.47-1.44-.06-2.89-.06-4-.06h-3.27c-.48,0-.97,0-1.45,0-7.62-.07-13.4-6.59-13.44-15.16-.04-10.41-.04-21,0-32.4.03-8.44,5.93-15.07,13.44-15.09,2.99,0,5.98-.01,8.97-.01h12.55s24.01,0,24.01,0c6.83,0,12.33,5.32,13.38,12.93.11.8.12,1.58.12,2.17,0,10.75,0,21.5,0,32.26,0,7.44-4.13,13.33-10.51,15.01-1.04.27-2.09.28-3.01.29h-.31c-.48,0-.96.01-1.44.01h-3.02c-.95,0-2.2,0-3.45.05-.26.01-.73.21-.99.49-2.49,2.63-4.99,5.35-7.41,7.99-1.06,1.15-2.11,2.3-3.17,3.45-.73.79-1.55,1.57-2.68,1.57ZM36.37,43.07c1.22,0,2.44,0,3.66.03-.03-.5-.02-.99-.02-1.46,0-.34.01-.67,0-1.01-.02-.51-.19-2.17-1.54-2.2-2.37-.05-4.77-.07-7.14-.07s-4.85.02-7.25.07c-.94.02-1.43.75-1.45,2.17-.01.58,0,1.15,0,1.73,0,0,0,.65,0,.75h8.75s5,0,5,0ZM31.13,23.47c-2.17.08-3.76,2.18-3.7,4.88.05,2.52,1.69,4.42,3.81,4.42h.11c2.21-.07,3.78-2.11,3.73-4.85-.04-2.41-1.79-4.44-3.84-4.44h-.11Z"/>
      <path class="cls-1" d="M24.12,3.21c4.61,0,9.23,0,13.84,0h0c4.54,0,9.07,0,13.61,0,3.01,0,6.03,0,9.04,0,6.01,0,10.85,4.74,11.79,11.54.09.64.11,1.3.11,1.95,0,10.75.01,21.5,0,32.25,0,6.7-3.62,11.96-9.32,13.45-.95.25-1.96.23-2.94.24-.47,0-.94,0-1.41,0-1.01,0-2.02,0-3.03,0-1.17,0-2.35.01-3.52.06-.71.03-1.56.44-2.09.99-3.57,3.77-7.07,7.63-10.6,11.45-.65.7-1.07,1.05-1.5,1.05s-.87-.36-1.54-1.09c-3.53-3.82-7.04-7.67-10.62-11.43-.53-.55-1.38-.94-2.1-.97-1.35-.05-2.7-.06-4.06-.06-1.08,0-2.17,0-3.25,0-.48,0-.97,0-1.45,0-6.7-.06-11.81-5.86-11.84-13.56-.04-10.79-.04-21.59,0-32.38.03-7.52,5.27-13.47,11.84-13.49,3.01,0,6.03-.01,9.04-.01M31.23,34.37c.05,0,.11,0,.16,0,3.08-.09,5.35-2.86,5.29-6.48-.05-3.29-2.54-6.03-5.44-6.03-.06,0-.11,0-.17,0-3.06.11-5.33,2.93-5.25,6.52.07,3.42,2.41,5.99,5.41,5.99M47.64,30.58c.79-.67,1.57-1.32,2.57-2.17,0,3.85,0,7.37,0,10.89,0,2.01,0,2.36,1.17,2.36.26,0,.59-.02.98-.04.67-.04.96-.31.95-1.09,0-4.88,0-9.75.01-14.63,0-.86-.37-1.04-1.05-1.15-.2-.04-.4-.05-.59-.05-1.39,0-2.43.89-3.47,1.91-1.05,1.03-1.3,2.37-.59,3.98M26.38,44.69c1.39,0,2.77,0,4.16,0,.28,0,.55,0,.83,0,1.66,0,3.32-.01,4.99-.01,1.3,0,2.6,0,3.89.03.03,0,.06,0,.08,0,.93,0,1.42-.29,1.32-1.52-.07-.86,0-1.74-.03-2.61-.08-2.15-1.24-3.71-3.12-3.75-2.39-.05-4.79-.07-7.18-.07s-4.85.02-7.28.07c-1.93.04-2.99,1.52-3.03,3.75-.01.74,0,1.48,0,2.22,0,1.88,0,1.88,1.59,1.89,1.26,0,2.52,0,3.78,0M24.12,0c-3.02,0-6.03,0-9.05.01C6.67.04.06,7.37.03,16.7c-.04,11.41-.04,22.01,0,32.41.04,9.48,6.5,16.69,15.03,16.76.49,0,.99,0,1.48,0,.55,0,1.09,0,1.64,0,.54,0,1.08,0,1.62,0,1.07,0,2.46,0,3.84.06,0,0,.02,0,.03.01,2.63,2.77,5.28,5.64,7.84,8.42.9.98,1.8,1.96,2.7,2.93.74.8,1.97,2.13,3.9,2.13s3.19-1.36,3.86-2.09c1.06-1.14,2.11-2.29,3.17-3.44,2.42-2.63,4.92-5.35,7.4-7.97,0,0,0,0,0,0,0,0,0,0,0,0,0,0,0,0,.01,0,1.18-.05,2.36-.06,3.26-.06.5,0,1,0,1.5,0,.51,0,1.02,0,1.53,0s.97,0,1.45,0h.31c1.02-.01,2.18-.02,3.41-.35,7.11-1.87,11.71-8.37,11.71-16.56,0-10.75,0-21.5,0-32.26,0-.64-.02-1.49-.14-2.39C74.42,5.89,68.26,0,60.61,0h-9.04s-6.81,0-6.81,0h-6.8s-3.21,0-3.21,0h0s-3.7,0-3.7,0h-6.92ZM31.23,31.16c-1.24,0-2.16-1.2-2.2-2.84-.04-1.8.89-3.19,2.16-3.24h.05c1.03,0,2.21,1.22,2.23,2.86.03,1.83-.89,3.18-2.18,3.22h-.06ZM24.3,40.04c2.36-.05,4.71-.07,7.02-.07s4.66.02,6.97.07c.05.12.11.34.12.66,0,.26,0,.52,0,.78-.63,0-1.31,0-2.06,0-.83,0-1.67,0-2.5,0-.83,0-1.66,0-2.48,0h-.83s-2.08,0-2.08,0h-2.08c-.72,0-1.44,0-2.16,0,0-.28,0-.56,0-.84,0-.27.04-.47.07-.6h0Z"/>
    </g>
  </g>
</svg>