<?xml version="1.0" encoding="UTF-8"?>
<svg xmlns="http://www.w3.org/2000/svg" viewBox="0 0 146.5 309.27">
  <defs>
    <style>
      .cls-1 {
        fill: #fdc;
      }

      .cls-2 {
        fill: #575159;
      }

      .cls-3 {
        isolation: isolate;
      }

      .cls-4 {
        fill: #ff5e5e;
      }

      .cls-5 {
        fill: #fb9;
      }

      .cls-6 {
        fill: #fff;
      }

      .cls-7 {
        mix-blend-mode: overlay;
      }

      .cls-8 {
        fill: #d4c5db;
      }

      .cls-9 {
        fill: #852727;
      }

      .cls-10 {
        fill: #8f8694;
      }
    </style>
  </defs>
  <g class="cls-3">
    <g id="Layer_2" data-name="Layer 2">
      <g id="Layer_1-2" data-name="Layer 1">
        <g>
          <g>
            <g>
              <g>
                <rect class="cls-8" x="48.72" y="59.75" width="30.53" height="146.86"/>
                <path class="cls-2" d="M75.03,63.98v138.41h-22.08V63.98h22.08M83.47,55.53h-38.97v155.31h38.97V55.53h0Z"/>
              </g>
              <path class="cls-10" d="M75.03,63.98v90.79c-8.68-1.82-16.15-2.08-22.08-1.67V63.98h22.08Z"/>
            </g>
            <g>
              <path class="cls-4" d="M63.99,123.73c-32.96,0-59.77-26.81-59.77-59.75,0-20.73,10.5-39.68,28.1-50.68,9.49-5.94,20.44-9.07,31.67-9.07,32.95,0,59.75,26.81,59.75,59.75,0,7.98-1.55,15.75-4.62,23.1-9.37,22.27-31.01,36.66-55.14,36.66Z"/>
              <path class="cls-9" d="M63.99,8.45c30.66,0,55.53,24.85,55.53,55.53,0,7.62-1.54,14.87-4.29,21.47-8.41,20-28.18,34.06-51.24,34.06-30.68,0-55.55-24.85-55.55-55.53,0-19.87,10.42-37.28,26.12-47.1,8.53-5.34,18.62-8.43,29.43-8.43M63.99,0c-12.03,0-23.75,3.36-33.91,9.72C11.25,21.5,0,41.78,0,63.98c0,35.28,28.71,63.98,63.99,63.98,25.83,0,49-15.4,59.03-39.23,3.29-7.89,4.95-16.21,4.95-24.75C127.97,28.7,99.27,0,63.99,0h0Z"/>
            </g>
            <path class="cls-7" d="M115.23,85.45c-8.41,20-28.18,34.06-51.24,34.06-30.68,0-55.55-24.85-55.55-55.53,0-19.87,10.42-37.28,26.12-47.1,3.48,21.81,19.65,53.32,80.67,68.57Z"/>
            <path class="cls-5" d="M63.99,13.52c27.82,0,50.46,22.64,50.46,50.46,0,6.74-1.31,13.31-3.89,19.51-7.91,18.8-26.19,30.95-46.57,30.95-27.83,0-50.48-22.64-50.48-50.46,0-17.51,8.87-33.51,23.74-42.8,8.01-5.01,17.25-7.66,26.74-7.66M63.99,8.45c-10.81,0-20.9,3.09-29.43,8.43-15.69,9.82-26.12,27.23-26.12,47.1,0,30.68,24.87,55.53,55.55,55.53,23.06,0,42.83-14.06,51.24-34.06,2.75-6.61,4.29-13.85,4.29-21.47,0-30.68-24.87-55.53-55.53-55.53h0Z"/>
            <ellipse class="cls-5" cx="63.71" cy="18.39" rx="16.69" ry="8.94"/>
            <ellipse class="cls-5" cx="65.81" cy="33.86" rx="6.2" ry="3.55"/>
          </g>
          <g>
            <g>
              <path class="cls-8" d="M90.68,305.51c-23.57,0-42.75-19.18-42.75-42.75v-52.07h94.82v94.82h-52.07Z"/>
              <path class="cls-2" d="M138.99,214.45v87.3s-48.31,0-48.31,0c-21.54,0-38.99-17.46-38.99-38.99v-48.31h87.3M146.5,206.93H44.17v55.83c0,25.65,20.86,46.51,46.51,46.51h48.31s7.52,0,7.52,0v-94.82s0-7.52,0-7.52h0Z"/>
            </g>
            <path class="cls-6" d="M134.66,218.77v78.65s-43.98,0-43.98,0c-19.11,0-34.67-15.55-34.67-34.67v-43.98h78.65M138.99,214.45h0,0ZM138.99,214.45H51.69v48.31c0,21.54,17.46,38.99,38.99,38.99h48.31s0-87.3,0-87.3h0Z"/>
            <g>
              <g>
                <path class="cls-4" d="M97.43,288.05c-17.21,0-31.21-14-31.21-31.21,0-5.87,1.64-11.59,4.74-16.54,5.75-9.19,15.64-14.68,26.47-14.68,17.21,0,31.21,14.01,31.21,31.22,0,12.6-7.51,23.91-19.14,28.8-3.84,1.6-7.9,2.41-12.07,2.41Z"/>
                <path class="cls-9" d="M97.43,227.82c16.03,0,29.01,12.99,29.01,29.01,0,12.05-7.34,22.37-17.79,26.76-3.45,1.44-7.24,2.24-11.22,2.24-16.02,0-29.01-12.99-29.01-29.01,0-5.65,1.61-10.92,4.4-15.37,5.13-8.2,14.23-13.64,24.6-13.64M97.43,223.41c-11.59,0-22.19,5.87-28.34,15.72-3.32,5.31-5.07,11.43-5.07,17.71,0,18.43,14.99,33.42,33.42,33.42,4.46,0,8.81-.87,12.91-2.58,12.46-5.24,20.5-17.34,20.5-30.84,0-18.43-14.99-33.43-33.42-33.43h0Z"/>
              </g>
              <path class="cls-7" d="M108.65,283.6c10.45-4.39,17.79-14.72,17.79-26.76,0-16.03-12.98-29.01-29.01-29.01-10.38,0-19.48,5.44-24.6,13.64,11.39,1.82,27.85,10.26,35.82,42.14Z"/>
              <path class="cls-1" d="M97.43,230.47c14.53,0,26.36,11.83,26.36,26.37,0,10.65-6.35,20.19-16.16,24.32-3.24,1.35-6.67,2.04-10.2,2.04-14.53,0-26.36-11.82-26.36-26.36,0-4.96,1.38-9.79,4-13.97,4.86-7.76,13.21-12.4,22.36-12.4M97.43,227.82c-10.38,0-19.48,5.44-24.6,13.64-2.79,4.46-4.4,9.72-4.4,15.37,0,16.02,12.98,29.01,29.01,29.01,3.98,0,7.77-.8,11.22-2.24,10.45-4.39,17.79-14.72,17.79-26.76,0-16.03-12.98-29.01-29.01-29.01h0Z"/>
              <ellipse class="cls-1" cx="73.62" cy="256.69" rx="4.67" ry="8.72"/>
              <ellipse class="cls-1" cx="81.7" cy="257.78" rx="1.85" ry="3.24"/>
            </g>
          </g>
        </g>
      </g>
    </g>
  </g>
</svg>